<svg xmlns="http://www.w3.org/2000/svg" viewBox="0 0 128 128" width="128" height="128"><g fill="none" stroke="#0D2E25" stroke-width="10" stroke-linecap="round" stroke-linejoin="round"><path d="M 36.0 42.1 L 38.0 41.2 L 40.0 40.5 L 42.0 39.8 L 44.0 39.4 L 46.0 39.1 L 48.0 39.0 L 50.0 39.1 L 52.0 39.4 L 54.0 39.8 L 56.0 40.5 L 58.0 41.2 L 60.0 42.1 L 62.0 43.0 L 64.0 44.0 L 66.0 45.0 L 68.0 45.9 L 70.0 46.8 L 72.0 47.5 L 74.0 48.2 L 76.0 48.6 L 78.0 48.9 L 80.0 49.0 L 82.0 48.9 L 84.0 48.6 L 86.0 48.2 L 88.0 47.5 L 90.0 46.8 L 92.0 45.9"></path><path d="M 36.0 62.1 L 38.0 61.2 L 40.0 60.5 L 42.0 59.8 L 44.0 59.4 L 46.0 59.1 L 48.0 59.0 L 50.0 59.1 L 52.0 59.4 L 54.0 59.8 L 56.0 60.5 L 58.0 61.2 L 60.0 62.1 L 62.0 63.0 L 64.0 64.0 L 66.0 65.0 L 68.0 65.9 L 70.0 66.8 L 72.0 67.5 L 74.0 68.2 L 76.0 68.6 L 78.0 68.9 L 80.0 69.0 L 82.0 68.9 L 84.0 68.6 L 86.0 68.2 L 88.0 67.5 L 90.0 66.8 L 92.0 65.9"></path><path d="M 36.0 82.1 L 38.0 81.2 L 40.0 80.5 L 42.0 79.8 L 44.0 79.4 L 46.0 79.1 L 48.0 79.0 L 50.0 79.1 L 52.0 79.4 L 54.0 79.8 L 56.0 80.5 L 58.0 81.2 L 60.0 82.1 L 62.0 83.0 L 64.0 84.0 L 66.0 85.0 L 68.0 85.9 L 70.0 86.8 L 72.0 87.5 L 74.0 88.2 L 76.0 88.6 L 78.0 88.9 L 80.0 89.0 L 82.0 88.9 L 84.0 88.6 L 86.0 88.2 L 88.0 87.5 L 90.0 86.8 L 92.0 85.9"></path></g></svg>
